<?xml version="1.0" standalone="no"?>
<!DOCTYPE svg PUBLIC "-//W3C//DTD SVG 20010904//EN"
 "http://www.w3.org/TR/2001/REC-SVG-20010904/DTD/svg10.dtd">
<svg version="1.0" xmlns="http://www.w3.org/2000/svg"
 width="400.000000pt" height="400.000000pt" viewBox="0 0 400.000000 400.000000"
 preserveAspectRatio="xMidYMid meet">
<metadata>
Created by potrace 1.11, written by Peter Selinger 2001-2013
</metadata>
<g transform="translate(0.000000,400.000000) scale(0.100000,-0.100000)"
fill="#000000" stroke="none">
<path d="M159 3971 c17 -16 31 -34 31 -40 0 -19 43 -12 106 18 96 45 91 51
-46 51 l-122 0 31 -29z"/>
<path d="M0 3835 c0 -15 4 -24 10 -20 13 8 13 32 0 40 -6 4 -10 -5 -10 -20z"/>
<path d="M2386 3438 c3 -4 9 -8 15 -8 5 0 9 4 9 8 0 5 -7 9 -15 9 -8 0 -12 -4
-9 -9z"/>
<path d="M1320 3326 c-54 -15 -135 -50 -211 -91 -62 -34 -144 -117 -136 -139
4 -10 -11 -18 -56 -30 -34 -10 -80 -25 -102 -35 -22 -10 -51 -24 -65 -30 -65
-29 -182 -100 -241 -146 -14 -11 -37 -27 -49 -35 -49 -32 -140 -111 -172 -149
-18 -23 -56 -52 -84 -67 -78 -39 -161 -109 -184 -154 -18 -35 -20 -58 -20
-235 0 -251 18 -345 107 -543 12 -29 23 -55 23 -57 0 -8 123 -210 146 -240 13
-16 31 -39 39 -50 126 -169 269 -303 450 -421 255 -167 502 -244 780 -244
l134 0 48 57 c92 108 264 261 323 287 30 13 40 25 40 50 0 27 40 104 57 110
12 5 13 -4 8 -47 -7 -52 -6 -54 29 -85 71 -62 176 -68 234 -12 27 25 29 30 16
48 -16 24 -60 138 -79 207 -7 28 -19 100 -25 160 -11 101 -11 117 7 192 19 78
19 83 3 83 -11 0 -20 -10 -23 -27 -9 -46 -77 -146 -155 -230 -40 -43 -105
-120 -143 -170 -65 -85 -102 -119 -84 -76 28 67 34 97 34 178 -1 50 -4 101 -8
115 -6 22 -11 17 -44 -52 -60 -124 -152 -195 -303 -233 l-61 -15 -30 27 c-16
16 -35 37 -41 49 -14 27 -64 222 -64 251 0 12 13 44 30 70 32 50 85 173 78
181 -3 2 -12 -9 -22 -25 -9 -15 -41 -51 -71 -80 -29 -28 -53 -56 -53 -61 0
-12 -130 -125 -137 -119 -3 3 2 18 10 34 23 45 65 145 77 186 6 20 16 37 20
37 5 0 7 7 4 15 -3 8 -1 36 5 62 14 66 26 303 14 303 -5 0 -31 -37 -58 -82
-61 -102 -262 -312 -289 -302 -11 4 -30 -9 -62 -45 -26 -28 -56 -56 -67 -63
-20 -10 -20 -10 1 23 43 70 112 219 126 275 39 154 67 384 47 384 -6 0 -20
-18 -32 -40 -25 -44 -47 -50 -74 -20 -16 18 -17 24 -5 63 8 23 17 47 21 52 4
6 15 37 25 70 29 92 92 146 212 181 42 12 -59 39 -178 47 l-45 3 40 19 c50 24
231 27 246 4 7 -11 12 -12 28 -2 11 7 62 24 113 39 82 24 112 27 249 28 l156
1 -46 49 c-148 156 -220 212 -326 255 -44 17 -87 39 -97 48 -25 22 -23 56 6
101 27 41 43 56 99 91 20 12 37 25 37 27 0 9 -138 2 -180 -10z m-369 -1126
c10 -6 19 -14 19 -19 0 -16 -84 -114 -88 -102 -3 10 39 131 46 131 2 0 12 -5
23 -10z m454 -727 c10 -90 25 -155 47 -192 10 -19 17 -40 14 -47 -3 -7 4 -16
15 -19 10 -4 19 -10 19 -14 0 -12 -218 -56 -228 -46 -6 5 -2 7 93 35 39 12 75
23 80 25 6 2 -3 4 -18 4 -43 1 -122 -26 -224 -77 l-93 -46 -25 24 c-14 13 -25
30 -25 37 0 8 -7 16 -15 19 -22 9 -18 32 6 39 33 11 283 242 316 292 23 35 31
28 38 -34z"/>
<path d="M3648 2567 c-21 -12 -38 -25 -38 -29 0 -14 15 -7 50 22 41 35 38 37
-12 7z"/>
<path d="M2864 2485 c-10 -8 -14 -15 -8 -15 5 0 19 7 30 15 10 8 14 15 8 15
-5 0 -19 -7 -30 -15z"/>
<path d="M3525 2470 c-26 -29 -14 -33 14 -4 13 13 19 24 14 24 -6 0 -18 -9
-28 -20z"/>
<path d="M3888 2483 c6 -2 18 -2 25 0 6 3 1 5 -13 5 -14 0 -19 -2 -12 -5z"/>
<path d="M2830 2438 c0 -19 2 -20 10 -8 13 19 13 30 0 30 -5 0 -10 -10 -10
-22z"/>
<path d="M3126 2402 c-9 -18 -14 -38 -10 -44 4 -6 3 -8 -4 -4 -9 5 -52 -42
-52 -58 0 -3 22 -15 49 -27 27 -11 52 -27 55 -35 6 -17 41 -18 85 -3 29 10 30
13 17 28 -8 9 -35 47 -60 85 -25 38 -46 65 -47 60 0 -5 -4 0 -8 11 -7 18 -9
17 -25 -13z"/>
<path d="M1120 2371 c0 -19 13 -43 41 -75 46 -52 76 -64 35 -13 -14 17 -35 51
-46 75 -24 49 -30 52 -30 13z"/>
<path d="M2980 2380 c-9 -16 -8 -18 5 -14 8 4 15 12 15 20 0 20 -7 17 -20 -6z"/>
<path d="M3390 2280 c-14 -11 -33 -20 -42 -20 -10 0 -18 -4 -18 -10 0 -14 8
-13 51 8 21 9 39 23 39 30 0 15 0 15 -30 -8z"/>
<path d="M3511 2154 c0 -11 3 -14 6 -6 3 7 2 16 -1 19 -3 4 -6 -2 -5 -13z"/>
<path d="M2518 2133 c12 -2 30 -2 40 0 9 3 -1 5 -23 4 -22 0 -30 -2 -17 -4z"/>
<path d="M2456 2107 c-15 -14 -26 -35 -25 -48 l0 -24 10 23 c5 13 19 32 32 42
12 10 19 21 16 25 -4 3 -19 -5 -33 -18z"/>
<path d="M2630 2079 c0 -5 5 -7 10 -4 6 3 10 8 10 11 0 2 -4 4 -10 4 -5 0 -10
-5 -10 -11z"/>
<path d="M3971 2039 c-5 -15 -54 -45 -150 -94 l-142 -72 -17 26 c-10 14 -24
38 -31 53 -8 16 -28 32 -47 38 -19 7 -36 20 -40 32 -6 20 -7 19 -19 -8 -10
-24 -34 -39 -128 -84 -64 -30 -117 -61 -117 -67 0 -15 -29 -16 -82 -4 -21 5
-38 5 -38 1 0 -5 -39 -27 -87 -50 -253 -122 -294 -145 -314 -176 -10 -18 -32
-37 -49 -44 -53 -22 -55 -32 -19 -110 23 -48 38 -69 47 -65 10 3 12 0 8 -10
-7 -19 40 -21 48 -2 3 8 9 6 20 -7 23 -29 20 -43 -14 -58 -16 -7 -30 -15 -30
-19 0 -16 86 -174 95 -174 6 0 31 7 57 14 34 10 55 10 76 3 38 -13 93 -1 170
37 34 17 64 31 66 31 3 0 62 28 133 62 82 39 141 75 166 100 34 35 48 43 70
39 4 0 7 3 7 8 0 14 89 63 100 56 6 -3 10 -2 10 4 0 5 20 24 45 41 25 17 45
35 45 41 0 5 -9 29 -20 51 -11 23 -20 47 -20 53 0 16 40 42 143 95 l87 45 0
117 c0 114 -10 147 -29 97z m-954 -561 c-3 -8 -6 -5 -6 6 -1 11 2 17 5 13 3
-3 4 -12 1 -19z m-2 -65 c-4 -16 -4 -25 0 -21 4 3 21 -9 39 -28 29 -31 38 -34
90 -35 l59 -2 -41 -18 c-41 -19 -42 -19 -86 2 -46 23 -102 99 -78 107 7 2 10
8 6 13 -3 5 0 9 6 9 8 0 10 -9 5 -27z m-196 -110 c-12 -15 -12 -16 6 -9 16 6
18 5 8 -5 -10 -10 -16 -10 -24 -2 -12 12 -4 33 13 33 6 0 5 -7 -3 -17z"/>
<path d="M3020 1373 c0 -6 8 -17 18 -24 16 -13 16 -13 2 6 -8 11 -16 22 -17
24 -2 2 -3 0 -3 -6z"/>
<path d="M3118 1313 c7 -3 16 -2 19 1 4 3 -2 6 -13 5 -11 0 -14 -3 -6 -6z"/>
<path d="M2441 2014 c0 -11 3 -14 6 -6 3 7 2 16 -1 19 -3 4 -6 -2 -5 -13z"/>
<path d="M2556 2005 c-11 -8 -17 -17 -14 -20 2 -3 13 4 23 15 21 23 18 25 -9
5z"/>
<path d="M2487 1945 c3 -8 9 -12 14 -9 12 7 11 11 -5 17 -10 4 -13 1 -9 -8z"/>
<path d="M1615 1664 c-16 -8 -39 -24 -51 -35 -27 -25 -32 -24 -36 8 l-3 27
-19 -28 c-18 -29 -18 -30 3 -75 12 -25 41 -74 64 -108 42 -63 73 -82 104 -64
14 7 13 10 -7 21 -36 19 -81 70 -78 87 6 30 35 39 58 18 16 -14 19 -26 14 -49
l-6 -30 28 18 c50 32 74 58 83 93 12 44 -3 99 -30 106 -17 5 -18 3 -8 -9 6 -8
13 -29 15 -48 4 -30 2 -33 -24 -34 -25 0 -29 3 -26 24 1 16 -5 29 -17 37 -25
16 -24 36 4 47 20 8 20 9 -8 9 -16 1 -43 -6 -60 -15z"/>
<path d="M3636 1398 c3 -5 10 -6 15 -3 13 9 11 12 -6 12 -8 0 -12 -4 -9 -9z"/>
<path d="M3660 1383 c0 -19 164 -122 176 -111 4 4 -75 57 -129 86 -23 12 -33
22 -25 25 8 4 7 6 -4 6 -10 1 -18 -2 -18 -6z"/>
<path d="M2876 1115 c-13 -10 -16 -20 -11 -32 8 -17 8 -17 13 2 2 11 9 26 14
33 13 16 8 15 -16 -3z"/>
<path d="M3698 1108 c5 -5 16 -8 23 -6 8 3 3 7 -10 11 -17 4 -21 3 -13 -5z"/>
<path d="M3006 990 c7 -28 12 -35 18 -29 2 2 -2 15 -10 29 l-15 25 7 -25z"/>
<path d="M2533 925 c0 -9 6 -14 13 -11 8 3 16 1 19 -4 4 -6 12 -10 18 -10 7 0
1 9 -13 20 -30 24 -37 25 -37 5z"/>
<path d="M3948 819 c-150 -79 -403 -126 -555 -103 -60 8 -95 9 -121 2 -22 -6
-86 -8 -157 -5 -90 4 -114 3 -95 -5 26 -11 123 -14 270 -7 87 4 140 -4 140
-21 0 -6 -15 -11 -32 -11 l-33 -1 30 -8 c21 -5 24 -8 9 -9 -11 0 -25 -6 -31
-12 -8 -8 -25 -8 -56 -2 -36 8 -46 7 -54 -6 -8 -13 -13 -14 -26 -3 -22 18 -38
6 -31 -22 4 -16 -2 -32 -18 -51 -24 -27 -25 -28 -75 -15 l-51 13 -36 -36 c-20
-21 -46 -37 -57 -37 -11 0 -38 -9 -61 -21 -37 -19 -46 -20 -79 -9 -36 12 -39
11 -76 -19 -20 -17 -42 -31 -48 -31 -20 0 -65 -25 -65 -36 0 -7 7 -14 15 -18
9 -3 15 -18 15 -36 0 -24 -4 -30 -21 -30 -11 0 -29 5 -40 10 -18 10 -18 12 -3
36 22 33 10 43 -19 16 -48 -45 -84 -13 -73 65 5 39 3 46 -14 50 -11 3 -20 9
-20 14 0 5 -6 9 -14 9 -9 0 -17 16 -21 41 l-7 41 -59 -6 c-39 -5 -59 -3 -59 4
0 5 6 10 14 10 8 0 24 11 37 25 13 14 41 35 62 46 20 11 37 23 37 28 0 4 19
13 43 20 59 17 145 61 151 77 3 8 1 14 -4 14 -19 0 -145 -63 -153 -77 -4 -7
-18 -13 -30 -13 -13 0 -28 -5 -35 -12 -7 -7 -12 -8 -12 -4 0 5 -11 1 -24 -8
-19 -12 -27 -13 -32 -4 -4 7 -2 14 4 16 21 7 13 20 -8 15 -11 -3 -20 -9 -20
-14 0 -11 -115 -146 -154 -181 -17 -16 -37 -28 -45 -28 -18 0 -84 -50 -76 -58
8 -8 -85 -94 -122 -112 -15 -8 -35 -19 -43 -26 -31 -24 -260 -134 -280 -134
-6 0 -10 -5 -10 -11 0 -7 9 -9 23 -5 12 4 37 9 56 12 30 4 33 2 28 -16 -3 -11
0 -23 6 -27 6 -4 2 -10 -11 -14 -15 -6 -22 -17 -22 -34 0 -25 7 -29 43 -26 9
1 17 -3 17 -8 0 -16 202 -14 219 2 11 10 14 10 18 0 4 -10 199 -13 930 -13
l926 0 73 41 74 40 0 50 c0 43 -12 66 -22 39 -4 -12 -88 -23 -88 -11 0 14 65
51 89 51 20 0 21 5 21 93 l-1 92 -33 -38 c-29 -35 -36 -38 -67 -32 -31 6 -37
3 -49 -20 -17 -33 -64 -58 -90 -50 -11 4 -23 18 -26 33 -3 15 -10 37 -16 49
-14 29 -4 41 47 54 29 7 50 20 61 38 10 14 24 32 31 40 20 19 11 35 -25 46
-40 11 -45 45 -7 45 15 0 31 9 41 25 9 14 43 37 75 52 47 22 59 32 59 50 0 21
-3 22 -21 13 -57 -31 -219 -57 -219 -35 0 6 -5 2 -11 -8 -7 -12 -17 -16 -32
-12 -15 4 -18 3 -9 -3 17 -12 -6 -22 -49 -22 -20 0 -29 -5 -29 -16 0 -19 -28
-43 -50 -44 -8 0 -21 -9 -27 -19 -7 -11 -25 -22 -42 -26 -32 -7 -64 -35 -41
-35 9 0 8 -6 -4 -19 -39 -43 22 -55 113 -21 30 11 57 24 61 30 8 12 72 21 88
11 21 -13 -10 -55 -48 -64 -41 -10 -96 -24 -127 -32 -12 -3 -25 -14 -28 -24
-6 -19 -65 -51 -95 -51 -21 0 -23 4 -24 60 -1 48 -32 63 -111 54 -60 -6 -84
-22 -85 -54 0 -24 -47 -24 -60 0 -14 25 7 58 50 80 134 69 160 85 160 97 0 7
6 13 14 13 7 0 34 11 60 25 26 14 53 25 59 25 7 0 30 9 52 20 22 11 47 20 57
20 10 0 18 4 18 8 0 4 25 16 56 25 31 10 63 24 71 33 9 8 22 13 29 10 20 -7
45 4 37 17 -4 6 4 8 23 3 19 -4 24 -3 15 3 -10 6 -3 12 25 22 22 7 41 13 44
14 8 0 80 46 80 51 0 8 -15 3 -52 -17z m-1667 -292 c-1 -12 -15 -9 -19 4 -3 6
1 10 8 8 6 -3 11 -8 11 -12z m819 -156 c0 -5 -7 -11 -15 -15 -12 -4 -13 -11
-5 -31 17 -45 13 -58 -15 -51 -20 5 -25 3 -25 -14 0 -30 -53 -28 -67 3 -15 29
-23 68 -14 63 12 -8 76 18 95 37 18 18 46 23 46 8z m-1065 -91 c0 -8 -8 -16
-17 -18 -10 -2 -18 1 -18 7 0 6 -8 7 -17 4 -15 -6 -16 -5 -3 10 18 20 55 18
55 -3z m823 -53 c4 -21 -26 -67 -45 -67 -8 0 -26 -6 -41 -14 -82 -41 -143 -15
-141 60 0 22 3 34 6 27 3 -9 9 -10 23 -1 14 9 29 7 71 -11 l53 -22 25 26 c28
27 44 28 49 2z m317 3 c-3 -5 -10 -10 -16 -10 -5 0 -9 5 -9 10 0 6 7 10 16 10
8 0 12 -4 9 -10z m-981 -29 c11 -17 -6 -40 -34 -46 -16 -3 -45 -22 -65 -41
-41 -39 -52 -41 -71 -16 -19 24 -18 27 22 72 34 37 40 40 90 40 29 0 55 -4 58
-9z m334 -120 c6 -37 -15 -51 -74 -51 -65 0 -70 14 -19 58 28 25 39 29 62 23
18 -5 29 -15 31 -30z"/>
<path d="M2704 819 c-3 -5 3 -12 13 -15 10 -3 36 -12 57 -20 58 -21 53 -11 -9
18 -30 14 -58 22 -61 17z"/>
<path d="M2836 761 c5 -5 20 -12 34 -15 l25 -7 -25 15 c-28 17 -50 21 -34 7z"/>
<path d="M3488 743 c6 -2 18 -2 25 0 6 3 1 5 -13 5 -14 0 -19 -2 -12 -5z"/>
<path d="M2918 733 c7 -3 16 -2 19 1 4 3 -2 6 -13 5 -11 0 -14 -3 -6 -6z"/>
<path d="M2265 698 c-16 -11 -21 -17 -10 -13 34 13 65 18 65 11 0 -4 -5 -16
-10 -27 -6 -10 -8 -19 -6 -19 6 0 36 55 36 65 0 12 -47 2 -75 -17z"/>
<path d="M2622 663 c-6 -11 -5 -31 1 -53 8 -30 10 -32 17 -15 5 15 9 7 15 -32
7 -57 12 -59 85 -53 49 4 57 57 10 67 -16 3 -30 9 -30 14 0 5 -6 6 -14 3 -11
-4 -16 5 -18 38 -3 38 -6 43 -30 46 -18 2 -30 -3 -36 -15z"/>
<path d="M2934 655 c-7 -16 2 -35 17 -35 5 0 9 5 9 11 0 7 8 18 18 25 15 12
14 13 -11 14 -15 0 -30 -7 -33 -15z"/>
<path d="M3962 559 c-18 -17 -32 -35 -32 -39 0 -16 27 -29 48 -23 18 4 22 12
22 49 0 24 -1 44 -3 44 -2 0 -18 -14 -35 -31z"/>
<path d="M2146 555 c-29 -27 -34 -45 -11 -45 19 0 55 36 55 55 0 21 -13 19
-44 -10z"/>
<path d="M3048 563 c7 -3 16 -2 19 1 4 3 -2 6 -13 5 -11 0 -14 -3 -6 -6z"/>
<path d="M1560 114 c-19 -7 -45 -13 -58 -13 -19 -1 -22 -6 -20 -32 4 -38 -26
-64 -43 -39 -9 13 -10 13 -5 -2 3 -10 -1 -18 -12 -21 -9 -3 26 -5 78 -6 l95
-1 -1 42 c-1 24 2 48 7 53 17 22 -5 32 -41 19z"/>
<path d="M626 93 c-2 -3 5 -25 17 -49 19 -40 24 -44 57 -44 29 0 39 5 50 25
10 18 11 28 3 36 -13 13 -119 39 -127 32z"/>
<path d="M1042 15 c-11 -13 -1 -15 75 -14 55 0 81 3 68 8 -19 8 -18 9 5 13 14
3 -11 6 -55 6 -59 1 -83 -3 -93 -13z"/>
</g>
</svg>
